<svg xmlns="http://www.w3.org/2000/svg" width="44" height="44"><path d="M22.001 0C9.851 0 0 9.85 0 22s9.85 22 22 22 22-9.85 22-22c.001-12.15-9.85-22-21.999-22z" fill="#c70102"/><path d="M25.397 3.133q-.451.323-1.181.903-.71.58-1.44 1.138-.73.537-1.352.945-.622.408-.88.408-.344 0-.688-.386-.321-.408-.708-.88-.365-.495-.816-.881-.43-.408-.988-.408-.903 0-1.525.858-.623.838-1.053 2.126-.408 1.289-.644 2.814-.236 1.525-.386 2.899l-.128 1.01h5.346l.58.751q-.214.3-.644.73-.409.43-.88.86-.451.407-.881.75-.43.344-.644.451-.237-.601-.924-.773-.666-.193-2.04-.193h-.215l-1.46 12.714q-.28 2.362-1.224 4.553-.924 2.211-2.255 4.102-1.31 1.91-2.899 3.414-1.567 1.524-3.157 2.49l-.88-1.824q1.073-.602 1.954-1.825.858-1.225 1.503-2.814.666-1.568 1.095-3.373.43-1.803.623-3.564l1.61-13.873H5.21l-.493-.838 2.812-1.738h.966q.215-1.719.602-3.308.408-1.589 1.053-3.007.644-1.416 1.61-2.641.966-1.245 2.319-2.255 1.16-.838 2.384-1.417 1.224-.58 2.556-.58 1.052 0 2.06.387 1.01.365 1.848.838.86.471 1.503.901.645.43.966.536z" fill="#fff"/><path d="M41.665 18.804q0 .872-.626 2.423-.626 1.552-2.042 4.14-1.417 2.587-3.704 6.399-2.288 3.786-5.637 9.15-.245.136-.87.463-.628.3-1.336.626l-1.36.68q-.654.328-.927.436l-1.089-1.035q-.3-2.314-.763-5.009-.464-2.724-.953-5.31-.49-2.615-.98-4.793-.49-2.18-.871-3.431-.218-.736-.464-1.172-.244-.436-.517-.68-.245-.246-.49-.3-.245-.082-.49-.082-.273 0-.708.109-.436.082-.872.219-.49.136-1.089.325l-.653-1.824q1.144-.572 2.45-1.198 1.335-.654 2.533-1.17 1.198-.546 2.151-.9.953-.354 1.361-.354.79 0 1.28.79.518.763 1.09 2.67.217.707.517 2.041.3 1.308.6 2.941.326 1.634.653 3.378.327 1.742.572 3.24.272 1.498.436 2.614.19 1.089.217 1.443 1.88-2.968 3.023-5.255 1.171-2.316 1.824-3.95.654-1.66.872-2.668.218-1.035.218-1.415 0-1.335-1.498-1.335-.464 0-.926.108-.436.083-1.035.3l-.599-1.77q.844-.464 2.042-1.008 1.226-.572 2.425-1.034 1.224-.49 2.287-.789 1.089-.327 1.716-.3.952.027 1.578.517.654.463.654 1.77z" fill="#fff"/></svg>