<svg viewBox="0 0 460 200" xmlns="http://www.w3.org/2000/svg"><path d="M.717 81.143c49.347-6.002 65.185-5.874 221.395 5.334 104.923 7.53 173.382-12.003 238.066-22.673" fill="none" stroke="#fff"/><path d="M28.846 28.426l7.18-26.398L36.63 2l9.604 25.616L73.3 26.354l.11.753-21.28 16.448 9.978 25.522-.505.554L38.77 54.406 17.452 71.689l-.554-.504 7.561-26.34L1.74 30.447l.04-.76 27.066-1.26zm2.25 2.774l-14.59.68-7.654-.022.007.152 6.926 3.92 12.027 7.698-3.786 13.056-2.791 8.389.155.068 6.773-5.846 10.438-8.518 11.184 7.51 7.289 5.191.147-.082-3.559-8.093-4.984-12.648 11.259-8.783 6.53-4.547-.006-.152-7.694.738-14.515.676-5.106-13.627-2.39-7.39-.151.008-1.768 7.583-3.74 14.04zM132.181 57.76q.033-.53.055-2.12l.167-2.72q-3.504-.974-7.432-1.215-5.817-.358-9.257 1.326-3.36 1.613-3.554 4.786-.195 3.173 2.72 5.096 2.994 1.852 8.509 2.192 8.31.51 8.792-7.346zm6.992-28.612l-.033.528q-.357 5.817-.42 19.159 13.295 4.533 22.992 14.531l-4.054 5.514q-7.931-9.132-19.092-13.837-.1 4.088-.16 5.07-.316 5.137-3.995 8.247-3.6 3.04-10.775 2.598-8.385-.515-13.19-3.768-4.805-3.253-4.419-9.522.339-5.515 5.468-8.763 5.128-3.249 14.57-2.668 3.173.195 6.47.852.157-12.425.487-17.789.66-10.727.783-13.98.184-5.448-.135-7.666l7.403.455q-.602 2.39-1.073 7.592l-.479 7.781q14.527.514 22.75-.042l-.13 5.83q-11.392.286-22.968-.122zM229.77 48.863q.307-4.834-3.127-8.085-3.354-3.322-9.246-3.695-2.492-.158-4.999-.09-2.431.074-5.113.51-2.607.442-3.985.658-1.304.22-4.075.879-2.768.583-2.923.649-1.228.225-6.56 1.783l-1.513-7.225q2.814-.125 7.02-.692.232-.061 4.444-.704 4.216-.719 6.129-.977 1.987-.253 5.717-.471 3.735-.294 6.832-.098 8.384.532 13.383 5.399 5.076 4.872 4.573 12.803-.757 11.934-10.743 18.732-9.906 6.728-25.765 8.074l-3.252-6.122q14.848-.954 23.672-6.158 8.904-5.275 9.531-15.17zM198.502 18.14l1.356-5.83q5.88 1.739 16.01 3.443 10.206 1.709 16.319 2.172l-1.285 5.91q-18.207-2.292-32.4-5.695zM266.926 28.541l-.211-6.354q8.126.715 20.305.311 9.606-.318 20.615-1.744l.21 6.354q-12.526 1.324-20.62 1.593-10.665.354-20.3-.16zm-2.38 24.16l6.375.394q-1.408 5.499-1.3 8.752.148 4.463 4.852 7.033 4.702 2.494 13.628 2.198 16.793-.557 26.15-3.82l.296 6.653q-9.823 2.9-26.086 3.44-11.8.392-18.356-3.177-6.555-3.57-6.79-10.68-.11-3.328 1.232-10.793zM340.694 20.334l-1.223-6.246q2.814-.108 6.098-.666 2.995-.44 11.626-2.09 8.706-1.66 11.572-2.463 2.438-.588 4.008-1.354l4.543 3.846q-1.985 1.592-3.626 3.44-1.652 1.772-9.283 10.236-7.63 8.464-10.669 11.74 21.974-5.597 35.677-7.61l.847 5.767q-12.593 1.236-19.19 3.2-5.58 1.584-9.458 6.437-3.802 4.841-3.044 10.008 1.386 9.435 14.668 9.245 5.65-.065 10.976-1.306l-.36 6.402q-13.84 2.644-21.88-.536-7.965-3.19-9.251-11.952-.649-4.418 1.475-8.707 2.188-4.376 5.261-6.892-12.063 2.765-26.762 7.371l-1.382-5.764q1.401-.358 12.81-3.41 6.932-6.45 22.009-24.115-.663.174-9.197 1.963-8.546 1.713-10.47 2.149-.664.174-1.926.435-1.187.251-2.15.469-.962.218-1.7.403zM106.36 135.129l-2.017 1.982q-.786-1.503-3.418-4.853l-2.87 14.424H95.49l3.076-15.381q-4.067 6.289-8.1 9.98-.103-.683-.89-2.46 2.257-1.88 4.82-5.025 2.598-3.145 4.444-6.289h-6.29l.513-2.495h6.768l1.128-5.674q-3.452.684-6.221 1.06-.034-1.026-.41-2.051 9.468-1.47 13.774-3.281l1.572 1.914q-2.7 1.025-6.05 1.811l-1.23 6.22h6.118l-.512 2.496h-6.118l-.41 2.085q.751.752 2.494 2.768 1.778 2.017 2.393 2.769zm14.287 10.767l-2.905.888q.034-1.333-.137-3.52-9.4 1.264-16.27 2.016l-.102-2.7q1.607-.17 3.384-.307 2.632-5.503 5.64-13.023 3.042-7.554 5.126-13.706l2.803.513q-5.024 13.774-10.869 25.942 1.299-.137 4.683-.478 3.383-.376 5.23-.547-.684-4.512-1.983-8.374l2.597-.752q1.197 3.418 1.983 7.348.786 3.931.82 6.7zM132.85 139.23q1.23 0 2.973-1.982 1.777-2.016 3.862-6.186 2.154-4.239 3.794-9.331-3.247.41-6.152 2.221-2.871 1.812-4.58 4.204-1.71 2.359-2.188 4.751-.615 3.008.171 4.683.82 1.64 2.12 1.64zm7.963 5.811l-1.094-2.632q1.333-.068 3.042-.41 3.863-.82 6.939-3.418 3.076-2.632 3.896-6.836.82-4.067-1.093-6.87-1.88-2.837-6.119-3.179-1.914 5.64-4.033 9.947-5.366 10.8-10.288 10.8-2.427 0-3.794-2.597-1.367-2.598-.547-6.7 1.162-5.707 6.46-9.877 5.298-4.204 11.587-4.204 5.947 0 8.887 3.691 2.94 3.657 1.846 9.058-1.094 5.468-5.23 8.955-4.136 3.452-10.459 4.272zM169.798 129.626l2.187 1.196q-1.504 2.154-4.102 5.025-2.597 2.87-4.511 4.546l-2.12-1.64q2.017-1.539 4.512-4.24 2.53-2.7 4.034-4.887zm20.063-4.238h-9.297l-3.418 16.987q-.547 2.769-3.554 2.769-2.94 0-4.922-.24l.341-2.768q2.017.376 3.897.376 1.367 0 1.64-1.333.41-1.88 3.145-15.518l.068-.273h-9.707q-1.743 0-3.042.137l.581-2.974q1.436.205 2.94.205h9.741l.718-3.589q.308-1.47.24-2.495h3.28q-.41.957-.717 2.495l-.718 3.589h9.263q1.401 0 2.905-.17l-.581 2.904q-1.402-.102-2.803-.102zm-5.64 5.537l2.632-1.299q1.026 1.572 2.256 4.307 1.23 2.734 1.948 4.853l-2.837 1.436q-.615-2.188-1.811-4.922-1.162-2.769-2.188-4.375zM198.27 132.395l.683-3.418q2.632.17 4.853.17h19.175q1.846 0 3.828-.17l-.683 3.418q-3.384-.171-3.726-.171h-19.209q-3.076 0-4.922.17zM260.032 143.982l-3.179 1.333q-.273-1.778-.991-4.58-12.954 1.572-22.285 2.392-.513.034-1.607.205-1.093.171-1.401.205l.17-3.281q1.095.034 3.248-.034.513-.034 1.743-.103 1.948-3.247 5.366-9.707 3.453-6.494 5.059-9.741.786-1.743 1.367-3.35l3.35.684q-1.504 2.598-1.846 3.247-7.588 14.458-9.98 18.594 6.87-.615 16.03-1.743-1.504-4.922-2.803-7.178l2.871-1.196q1.333 2.631 2.837 7.075 1.504 4.443 2.05 7.178zM292.298 121.32q-.89.752-1.094 1.812-.205 1.06.376 1.811.615.718 1.709.718 1.06 0 1.948-.718.889-.751 1.094-1.811.205-1.06-.376-1.812t-1.64-.752q-1.095 0-2.017.752zm-2.154 4.82q-.991-1.23-.65-3.008.377-1.777 1.88-3.008 1.505-1.265 3.282-1.265 1.777 0 2.734 1.265.992 1.23.616 3.008-.342 1.777-1.812 3.008-1.47 1.23-3.247 1.23t-2.803-1.23zm-22.011 11.347l-2.051-2.563q1.401-1.06 2.905-2.324.923-.752 2.393-2.154 1.47-1.435 3.35-3.28 1.88-1.847 2.836-2.77 1.743-1.708 3.008-1.777 1.265-.102 2.871 1.436 1.812 1.777 5.81 7.246 4.205 5.742 6.563 9.365l-2.734 2.461q-1.914-3.281-6.016-9.297-3.896-5.571-5.4-7.11-.923-.922-1.504-.854-.581.035-1.71 1.128-1.093 1.06-3.998 4-2.871 2.939-3.794 3.827-.24.274-2.53 2.666zM303.27 132.395l.683-3.418q2.632.17 4.853.17h19.175q1.846 0 3.828-.17l-.683 3.418q-3.384-.171-3.726-.171h-19.209q-3.076 0-4.922.17zM360.554 118.86l2.085-.855q1.333 2.598 2.154 5.435l-2.154.888q-.957-3.35-2.085-5.469zm4.888-1.675l2.12-.855q1.059 1.846 2.29 5.366l-2.188.89q-.957-3.077-2.222-5.401zm-19.687 2.632l2.05-2.325q3.282 2.12 6.597 4.922l-2.12 2.427q-2.597-2.393-6.527-5.024zm-7.178 25.532l-1.06-2.837q6.665-1.094 12.544-4.068 9.707-4.99 15.825-12.851l1.128 2.905q-2.973 3.52-7.143 6.802-4.17 3.247-8.853 5.708-2.734 1.47-6.22 2.666-3.487 1.162-6.221 1.675zm.307-17.603l2.051-2.392q4.273 2.666 6.768 4.716l-2.12 2.461q-1.196-1.025-3.28-2.495-2.086-1.504-3.419-2.29zM373.27 132.395l.683-3.418q2.632.17 4.853.17h19.175q1.846 0 3.828-.17l-.683 3.418q-3.384-.171-3.726-.171h-19.209q-3.076 0-4.922.17zM413.909 117.629l3.11.24q-.547.956-1.128 2.358-3.315 8.203-4.34 13.261-.513 2.53-.684 4.751 1.299-2.255 2.905-4.956l1.299 1.094q-3.145 5.571-3.999 7.793-.308.786-.479 1.538l-.136 1.23-2.564.171q-.342-4.545.957-11.142.376-1.777 1.026-4.033.65-2.256 1.128-3.658.478-1.435 1.264-3.623.82-2.221.923-2.563.615-1.914.718-2.461zm5.195 16.782l2.461.274q-.786 1.811-1.06 3.178-.649 3.11 5.162 3.11 4.34 0 8.75-.922l-.547 2.94q-3.897.717-8.784.717-8.409 0-7.349-5.195.308-1.504 1.367-4.102zm3.384-11.006l.547-2.87q2.905.444 7.143.41 4.273-.035 7.11-.41l-.581 2.87q-2.837.274-7.144.274-4.272 0-7.075-.274z" fill="#fff"/></svg>