<svg xmlns="http://www.w3.org/2000/svg" class="mark-footer" viewBox="0 0 260 16" width="260" height="16">
<path d="M7.54562 1.4938c-1.17188 0-1.96875.586-2.39063 1.7578l-.7735 2.1101h-.7031c-1.1719 0-1.9688.5853-2.3906 1.7571l-.2637.7039H3.485L.9362 14.8539h3.51562c1.17187 0 1.96875-.5866 2.39062-1.7585l1.916-5.2727h.7031c1.17185 0 1.96873-.5867 2.3906-1.7586l.26367-.7024H9.655l.50976-1.4062h.70313c1.1718 0 1.9746-.586 2.4082-1.7578l.246-.7039H7.5456zm9.3441 3.1641c-1.17187 0-1.9746.5866-2.4082 1.7585l-3.0586 8.4375h3.51564c1.17187 0 1.96875-.5866 2.39062-1.7585l2.1797-5.9604 4.5703-.016c1.125 0 1.92188-.5852 2.39063-1.7571l.2637-.7038h-3.8672c-1.4999 0-2.6028.6684-3.2379 2.0362h-.0119l.7889-2.0362h-3.5156zm14.1615 0c-1.17187 0-1.9746.5866-2.4082 1.7585l-.2461.7024h5.97658c.70313 0 .92578.3523.66797 1.0554l-.12305.3509h-5.27344c-1.17188 0-1.9746.5859-2.4082 1.7578l-1.65235 4.571H36.1313c1.1719 0 1.96876-.5866 2.39064-1.7585l3.07617-8.4375H31.0513zm1.2129 6.3288h1.7578l-.52733 1.4063h-.7032c-.7032 0-.9258-.3523-.668-1.0554l.1406-.3509zm15.25205-6.3288c-1.17187 0-1.9746.5866-2.4082 1.7585l-3.0586 8.4375H45.565c1.17187 0 1.96875-.5866 2.39063-1.7585l2.17968-5.9766h.7032c.7032 0 .9258.3523.668 1.0554l-2.4257 6.6797h3.5156c1.1719 0 1.9688-.5866 2.3907-1.7585l3.07618-8.4375h-10.547zm15.82495 0c-.9375 0-1.61718.5866-2.03905 1.7585l-3.07617 8.4375h9.84375c1.16015.047 1.91602-.4219 2.26757-1.4062l.38672-1.0547h-5.625c-.70312 0-.92578-.3523-.66797-1.0554l1.5293-4.2188h4.92188c1.17187 0 1.96875-.5852 2.39062-1.7571l.26367-.7038H63.34112zm15.7898 0c-1.16015-.047-1.9629.5398-2.4082 1.7585l-3.0586 8.4375H84.211c1.17188 0 1.96876-.5866 2.39063-1.7585l3.07617-8.4375H79.13093zm2.61915 2.4609h.70313c.70312 0 .92578.3523.66797 1.0554l-1.5469 4.2188h-.7031c-.70314 0-.9258-.3523-.66798-1.0554L81.75 7.1188zM96.43245 1.143c-1.33594 0-2.24414.6621-2.7246 1.9863l-.43947 1.177h4.0254c1.27734 0 2.1914-.6621 2.74218-1.9863l.4043-1.177h-4.0078zm-1.14258 3.5149c-1.125 0-1.92773.5866-2.4082 1.7585l-3.0586 8.4375h3.51563c1.17187 0 1.96875-.5866 2.39062-1.7585l3.07618-8.4375h-3.51563zm9.23753 0c-1.17188 0-1.97462.5866-2.4082 1.7585l-1.65235 4.5703h5.97656c.7032 0 .9258.3516.668 1.0547l-.1406.3516h-5.2734c-1.1719 0-1.9687.5852-2.3906 1.7571l-.2461.7038h10.5469c1.1719 0 1.9688-.5866 2.3907-1.7585l1.66996-4.5703h-5.97657c-.70314 0-.93165-.3516-.68556-1.0547l.14066-.3516h5.2734c1.1719 0 1.96873-.5852 2.3906-1.7571l.26368-.7038h-10.5469zm30.87953.001c-1.17187 0-1.9746.5859-2.4082 1.7578l-3.0586 8.4375H140.487c1.1719 0 1.96878-.5859 2.39065-1.7578l3.07617-8.4375h-3.5156c-1.21876 0-2.0215.5859-2.40822 1.7578l-2.1797 5.9766h-.7031c-.70314 0-.9258-.3516-.66798-1.0547l2.44336-6.6797h-3.51563zm18.52552-3.5156c-1.33593 0-2.24414.6621-2.7246 1.9863l-.43946 1.1777h4.0253c1.2773 0 2.1914-.6621 2.7422-1.9863l.4043-1.1777h-4.0078zm-1.14258 3.5156c-1.125 0-1.92773.5859-2.4082 1.7578l-3.0586 8.4375h3.51563c1.17188 0 1.96875-.5859 2.39063-1.7578l3.07617-8.4375h-3.51563zm17.91353-3.1641c-1.17188 0-1.96875.586-2.39063 1.7578l-.50976 1.4063h-5.2734c-1.1718 0-1.9746.5859-2.4082 1.7578l-3.0586 8.4375h10.5469c1.125 0 1.9219-.5859 2.3907-1.7578l4.2188-11.6016h-3.5156zm-5.5547 5.625h1.75782l-1.9336 5.2735h-.70312c-.70312 0-.92578-.3516-.66797-1.0547l1.54687-4.2188zm14.9884-5.9765c-1.33595 0-2.24415.6621-2.72463 1.9863l-.43945 1.1777h4.0254c1.27734 0 2.1914-.6621 2.74218-1.9863l.4043-1.1777h-4.0078zm-1.1426 3.5156c-1.125 0-1.92772.5859-2.4082 1.7578l-3.0586 8.4375h3.51564c1.17187 0 1.96875-.5859 2.39062-1.7578l3.07617-8.4375h-3.51562zm13.37837-3.1641c-1.17188 0-1.9746.586-2.4082 1.7578l-.50977 1.4063h-.70312c-1.17188 0-1.96875.5859-2.39063 1.7578l-.26368.7031h2.46094l-2.8125 7.7344h3.5157c1.1602.047 1.9571-.5391 2.3906-1.7578l2.1797-5.9766h.7031c.9375 0 1.6172-.5859 2.0391-1.7578l.2637-.7031h-2.1093l1.1602-3.1641h-3.5157z"/>
<path d="M118.80523 6.7683c-1.17188 0-1.96875.5859-2.39062 1.7578l-.2461.7031h10.5469c1.1719 0 1.9688-.5859 2.3906-1.7578l.2461-.7031h-10.5468zm79.12134 4.2194l-.65038 1.7578c-.2461.7032.006 1.0547.7558 1.0547h1.6875l.6328-1.7578c.2578-.7031.0352-1.0547-.668-1.0547h-1.7578z" opacity=".61"/>
<path d="M209.04113 4.6579c-.9375 0-1.61718.5866-2.03905 1.7585l-3.07617 8.4375h9.8438c1.1602.047 1.916-.4219 2.2676-1.4062l.3867-1.0547h-5.625c-.7031 0-.9257-.3523-.6679-1.0554l1.5293-4.2188h4.9219c1.1719 0 1.9688-.5852 2.3906-1.7571l.2637-.7038h-10.1953zm15.7898 0c-1.16015-.047-1.96288.5398-2.4082 1.7585l-3.0586 8.4375H229.911c1.1719 0 1.96877-.5866 2.39065-1.7585l3.07617-8.4375h-10.54687zm2.61915 2.4609h.70312c.70313 0 .9258.3523.66797 1.0554l-1.54688 4.2188h-.7032c-.7032 0-.9258-.3523-.668-1.0554l1.5469-4.2188zm14.0669-2.4606c-1.17187 0-1.9746.586-2.4082 1.7579l-3.0586 8.4375h3.5156c1.1719 0 1.96876-.586 2.39065-1.7579l2.17968-5.9765h.7032c.6078 0 .833.2791.7227.8047l-2.5117 6.9297h3.5468c1.1719 0 1.9688-.586 2.3906-1.7579l2.1797-5.9765h.6719c.7031 0 .9258.3515.668 1.0547l-2.42575 6.6797h3.5156c1.1719 0 1.96876-.586 2.39065-1.7579l3.07616-8.4375H241.517z" opacity=".75"/>
</svg>