<svg class="mark-footer" viewBox="0 0 260 16" fill="#3b94d9" style="vertical-align: -2.25px;" width="260" height="16"><style>svg.mark-footer:hover{fill:#fff}</style><path d="M7.546 1.494c-1.172 0-1.97.586-2.391 1.758l-.774 2.11h-.703c-1.172 0-1.968.585-2.39 1.757l-.264.704h2.461l-2.549 7.03h3.516c1.172 0 1.969-.586 2.39-1.758l1.916-5.272h.704c1.171 0 1.968-.587 2.39-1.759l.264-.702H9.655l.51-1.407h.703c1.172 0 1.974-.586 2.408-1.757l.246-.704H7.546zm9.344 3.164c-1.172 0-1.975.586-2.408 1.758l-3.06 8.438h3.517c1.171 0 1.968-.587 2.39-1.759l2.18-5.96 4.57-.016c1.125 0 1.922-.585 2.39-1.757l.265-.704h-3.868c-1.5 0-2.602.668-3.238 2.036h-.011l.788-2.036H16.89zm14.161 0c-1.172 0-1.974.586-2.408 1.758l-.246.703h5.977c.703 0 .925.352.667 1.055l-.123.351h-5.273c-1.172 0-1.975.586-2.408 1.758l-1.653 4.57h10.547c1.172 0 1.97-.586 2.39-1.758l3.077-8.437H31.051zm1.213 6.329h1.758l-.527 1.406h-.704c-.703 0-.925-.352-.668-1.055l.141-.351zm15.252-6.33c-1.172 0-1.974.587-2.408 1.76l-3.059 8.437h3.516c1.172 0 1.969-.587 2.39-1.759l2.18-5.976h.704c.703 0 .925.352.668 1.055l-2.426 6.68h3.515c1.172 0 1.97-.587 2.391-1.759l3.076-8.437H47.516zm15.825 0c-.937 0-1.617.587-2.039 1.76l-3.076 8.437h9.844c1.16.047 1.916-.422 2.267-1.406l.387-1.055h-5.625c-.703 0-.926-.352-.668-1.055l1.53-4.22h4.921c1.172 0 1.969-.584 2.39-1.756l.264-.704H63.341zm15.79 0c-1.16-.046-1.963.54-2.408 1.76l-3.059 8.437h10.547c1.172 0 1.969-.587 2.39-1.759l3.077-8.437H79.13zm2.62 2.462h.702c.703 0 .926.352.668 1.055l-1.547 4.219h-.703c-.703 0-.926-.352-.668-1.055l1.547-4.22zm14.681-5.976c-1.335 0-2.244.662-2.724 1.986l-.44 1.177h4.026c1.277 0 2.191-.662 2.742-1.986l.404-1.177h-4.008zM95.29 4.658c-1.125 0-1.928.586-2.408 1.758l-3.059 8.438h3.516c1.172 0 1.968-.587 2.39-1.759l3.077-8.437H95.29zm9.237 0c-1.171 0-1.974.586-2.408 1.758l-1.652 4.57h5.976c.704 0 .926.352.668 1.055l-.14.352h-5.274c-1.171 0-1.968.585-2.39 1.757l-.246.704h10.547c1.172 0 1.968-.587 2.39-1.759l1.67-4.57h-5.976c-.703 0-.932-.352-.686-1.055l.14-.351h5.274c1.172 0 1.969-.585 2.39-1.757l.264-.704h-10.546zm30.88 0c-1.172 0-1.975.587-2.408 1.759l-3.059 8.437h10.547c1.172 0 1.969-.586 2.39-1.758l3.077-8.437h-3.516c-1.219 0-2.021.586-2.408 1.758l-2.18 5.976h-.703c-.703 0-.926-.351-.668-1.054l2.444-6.68h-3.516zm18.525-3.515c-1.335 0-2.244.662-2.724 1.987l-.44 1.177h4.026c1.277 0 2.191-.662 2.742-1.986l.404-1.178h-4.008zM152.79 4.66c-1.125 0-1.928.586-2.408 1.758l-3.059 8.437h3.516c1.172 0 1.968-.586 2.39-1.758l3.076-8.437h-3.515zm17.913-3.164c-1.171 0-1.968.586-2.39 1.758l-.51 1.406h-5.273c-1.172 0-1.975.586-2.409 1.758l-3.058 8.437h10.547c1.125 0 1.922-.586 2.39-1.758l4.22-11.601h-3.516zM165.15 7.12h1.758l-1.934 5.273h-.703c-.703 0-.926-.351-.668-1.054l1.547-4.22zm14.988-5.977c-1.336 0-2.244.662-2.725 1.987l-.439 1.177h4.025c1.278 0 2.192-.662 2.743-1.986l.404-1.178h-4.008zm-1.142 3.516c-1.125 0-1.928.586-2.409 1.758l-3.058 8.437h3.515c1.172 0 1.97-.586 2.391-1.758l3.076-8.437h-3.515zm13.378-3.164c-1.172 0-1.975.586-2.408 1.758l-.51 1.406h-.703c-1.172 0-1.969.586-2.39 1.758l-.265.703h2.461l-2.812 7.734h3.516c1.16.047 1.957-.539 2.39-1.758l2.18-5.976h.703c.938 0 1.617-.586 2.04-1.758l.263-.703h-2.11l1.16-3.164h-3.515z"></path><path d="M118.805 6.768c-1.172 0-1.969.586-2.39 1.758l-.246.703h10.546c1.172 0 1.97-.586 2.391-1.758l.246-.703h-10.547zm79.122 4.22l-.65 1.758c-.247.703.005 1.054.755 1.054h1.687l.633-1.758c.258-.703.035-1.054-.668-1.054h-1.758z" opacity="0.61"></path><path d="M209.041 4.658c-.937 0-1.617.586-2.039 1.758l-3.076 8.438h9.844c1.16.047 1.916-.422 2.267-1.406l.387-1.055h-5.625c-.703 0-.926-.352-.668-1.055l1.53-4.22h4.921c1.172 0 1.97-.584 2.39-1.756l.265-.704H209.04zm15.79 0c-1.16-.047-1.963.54-2.408 1.758l-3.059 8.438h10.547c1.172 0 1.969-.587 2.39-1.759l3.077-8.437H224.83zm2.62 2.46h.702c.703 0 .926.353.668 1.056l-1.547 4.219h-.703c-.703 0-.926-.352-.668-1.055l1.547-4.22zm14.066-2.46c-1.172 0-1.975.586-2.408 1.758l-3.059 8.438h3.516c1.172 0 1.969-.586 2.39-1.758l2.18-5.977h.703c.608 0 .833.28.723.805l-2.512 6.93h3.547c1.172 0 1.969-.586 2.39-1.758l2.18-5.977h.672c.703 0 .926.352.668 1.055l-2.425 6.68h3.515c1.172 0 1.969-.586 2.39-1.758l3.077-8.438h-17.547z" opacity="0.75"></path></svg>