<svg viewBox="0 125 400 150" id="svg-blog-section-ja_svg__blog-ja-svg" style="max-height: 40vh; margin-top: 3vh;">
<style>
@-webkit-keyframes anim-stroke{50%{stroke-width:100}}@keyframes anim-stroke{50%{stroke-width:100}}
</style>
<pattern id="svg-blog-section-ja_svg__p-lines" patternUnits="userSpaceOnUse" width="400" height="150">
<path d="M0 0v150" stroke="gold" stroke-width="40" style="animation: 1.6667s linear 0s infinite normal none running anim-stroke;"></path>
<path d="M45 0v150" stroke="#ff0" stroke-width="50" style="animation: 1.3334s linear 0s infinite normal none running anim-stroke;"></path>
<path d="M90 0v150" stroke="coral" stroke-width="40" style="animation: 1.6667s linear 0s infinite normal none running anim-stroke;"></path>
<path d="M135 0v150" stroke="#ff4500" stroke-width="50" style="animation: 1.3334s linear 0s infinite normal none running anim-stroke;"></path>
<path d="M180 0v150" stroke="#dc143c" stroke-width="40" style="animation: 1.6667s linear 0s infinite normal none running anim-stroke;"></path>
<path d="M225 0v150" stroke="#c71585" stroke-width="50" style="animation: 1.3334s linear 0s infinite normal none running anim-stroke;"></path>
<path d="M270 0v150" stroke="teal" stroke-width="40" style="animation: 1.6667s linear 0s infinite normal none running anim-stroke;"></path>
<path d="M315 0v150" stroke="#4682b4" stroke-width="50" style="animation: 1.3334s linear 0s infinite normal none running anim-stroke;"></path>
<path d="M360 0v150" stroke="#6495ed" stroke-width="40" style="animation: 1.6667s linear 0s infinite normal none running anim-stroke;"></path>
<path d="M405 0v150" stroke="#9acd32" stroke-width="50" style="animation: 1.3334s linear 0s infinite normal none running anim-stroke;"></path>
<path d="M450 0v150" stroke="#9acd32" stroke-width="40" style="animation: 1.6667s linear 0s infinite normal none running anim-stroke;"></path>
</pattern><a>
<g id="svg-blog-section-ja_svg__g4147" fill="url(#svg-blog-section-ja_svg__p-lines)">
<path id="svg-blog-section-ja_svg__path4136" d="M96.397 181.894c.412-.687.825-.962 1.65-1.512 1.512-1.1 2.887-2.613 2.887-4.675 0-2.063-.825-4.675-2.337-7.15-3.575-5.775-7.563-8.663-10.313-8.663-2.062 0-3.575.963-4.675 1.788-1.65 1.237-3.163 1.787-5.776 2.2-18.425 2.475-36.85 3.437-55.687 3.437-4.95 0-8.525-1.238-11.138-3.438-4.263-3.438-10.313.962-8.388 5.775 3.3 7.7 9.212 12.512 17.05 12.512a23.5 23.5 0 0 0 4.262-.413c8.113-1.788 26.675-3.988 54.863-6.738 1.1-.138 1.512.274 1.1 1.65-10.45 34.787-31.213 59.812-62.15 74.937-5.775 2.887-.688 11.275 4.812 8.8 18.424-7.425 33.412-17.325 44.55-29.288 11.55-12.1 20.624-27.226 27.774-45.788l1.513-3.438zm26.537-30.525c0-6.188-5.912-10.726-15.95-14.026-1.375-.412-2.887 0-3.712 1.238-.825 1.375-.55 2.887.55 3.712 3.575 2.888 6.187 6.05 7.7 9.9 1.237 3.025 3.162 4.95 5.912 4.95 3.575 0 5.5-1.925 5.5-5.775zm-12.512 10.037c0-6.188-6.05-11.138-16.088-14.713-1.237-.55-2.75-.137-3.712 1.238-.825.962-.55 2.612.687 3.575 3.3 2.75 5.912 6.187 7.974 10.862 1.375 2.887 3.163 4.812 5.775 4.812 3.712 0 5.362-2.338 5.362-5.775z"></path>
<path id="svg-blog-section-ja_svg__path4138" d="M224.547 244.044c6.875.138 10.175-2.887 10.175-6.462 0-2.888-1.925-5.088-4.675-6.6-.825-.413-1.1-.825-1.238-1.788v-.962c.137-.275.137-.413.137-.688l.825-6.05c2.475-19.662 3.85-31.625 4.537-36.025.137-1.238.412-1.65.962-1.926 1.925-1.237 3.712-2.887 3.712-5.362 0-3.85-2.062-7.838-5.775-11.825-1.65-1.788-3.988-3.3-6.463-3.3-1.925 0-3.85.687-5.363 1.375-1.237 1.1-2.887 1.787-5.225 2.062-7.976.825-18.013 1.238-30.388 1.788l-22.413 1.1c-.963.137-1.238-.138-2.063-.963l-1.238-1.1c-3.438-2.613-7.7-4.4-12.376-5.638-5.362-1.238-9.9 4.537-5.5 8.112 2.613 1.788 3.988 4.263 4.675 7.013.687 3.575 1.237 17.462 1.237 41.8 0 12.512-.138 20.9-.413 25.85v1.512c0 4.262 2.063 8.662 7.563 8.662 4.675 0 9.9-4.813 9.9-9.763h1.375c9.762-.55 17.325-.826 22.825-.826h35.2zm-62.013-61.462c0-1.1.413-1.513 1.375-1.65l53.35-2.75c.962-.138 1.374.412 1.374 1.65l-3.85 50.05c-.137 1.1-.55 1.512-1.375 1.512-7.976.413-18.7.688-31.9 1.375-7.7.274-13.338.55-16.363.687-1.1.137-1.375-.275-1.513-1.513-1.1-17.737-1.1-33.412-1.1-47.3v-2.062z"></path>
<path id="svg-blog-section-ja_svg__path4140" d="M354.21 178.594c.962 0 1.512.413.962 1.788-12.788 36.162-35.75 60.225-68.888 73.012-5.912 2.2-1.65 11.275 4.263 9.075 14.437-4.538 27.087-11 37.675-18.563 16.775-12.513 30.662-30.663 40.975-54.863 1.1-2.75 2.337-4.675 3.162-5.637.137-.138.412-.275.55-.688.55-.276 1.1-.55 1.65-1.1.824-1.1 1.787-2.476 1.787-4.126 0-3.437-2.2-7.287-6.188-11.412-1.376-1.65-3.576-3.163-6.05-3.163-2.063 0-3.85 1.1-5.226 1.787-2.2 1.787-4.262 2.612-6.462 2.887-4.95.688-11.413 1.375-19.525 1.925 1.787-3.576 2.75-6.326 2.75-8.25 0-6.738-7.563-9.626-16.363-10.588-2.2-.138-4.537.825-5.5 2.2-1.65 2.2-1.1 5.087 1.375 6.6 1.924.962 2.2 1.787 2.2 2.612 0 2.888-2.338 8.388-7.7 16.775-8.25 12.65-17.738 22.962-29.15 31.212-4.676 3.437.962 10.587 6.05 7.837 16.5-9.213 29.424-21.863 39.324-36.988.138-.275.138-.275.275-.275l28.05-2.063zm44.274-26.675c0-6.326-6.05-10.863-16.225-14.3-1.376-.413-2.888 0-3.713 1.237-.825 1.375-.55 3.025.55 3.85 3.575 2.887 6.187 6.187 7.837 10.037 1.238 3.025 3.163 5.088 5.913 5.088 3.712 0 5.637-2.063 5.637-5.913zm-12.787 10.174c0-6.325-6.05-11.275-16.225-14.987-1.375-.55-2.888-.138-3.85 1.237-.825 1.1-.55 2.75.687 3.713 3.437 2.75 6.05 6.325 8.112 11 1.375 3.025 3.3 4.95 5.912 4.95 3.713 0 5.363-2.338 5.363-5.913z"></path>
</g></a></svg>